<?xml version="1.0" encoding="utf-8"?>
<!-- Designed by Vexels.com - 2016 All Rights Reserved - https://vexels.com/terms-and-conditions/  -->

<svg version="1.1" id="Layer_1" xmlns="http://www.w3.org/2000/svg" xmlns:xlink="http://www.w3.org/1999/xlink" x="0px" y="0px"
	 width="1200px" height="1200px" viewBox="0 0 1200 1200" enable-background="new 0 0 1200 1200" xml:space="preserve">
<g>
	<g id="background">
	</g>
	<g id="design">
	</g>
	<g id="vexels">
		<path fill="#494949" d="M600.01,50C296.738,50,50,296.73,50,600.002C50,903.276,296.738,1150,600.01,1150
			C903.276,1150,1150,903.284,1150,600.002C1150,296.73,903.276,50,600.01,50z"/>
		<g>
			<path fill="#FFFFFF" d="M735.958,908.791L735.958,908.791c-9.073,0-18.589-4.93-28.284-14.61L576.648,763.14H420.796
				c-34.401,0-62.399-27.983-62.399-62.411V502.92c0-34.412,27.99-62.4,62.399-62.4h155.853l131.025-131.033
				c9.695-9.703,19.211-14.621,28.284-14.621c12.324,0,25.511,9.691,25.511,36.902v540.116c0,10.467-1.918,18.979-5.724,25.279
				C751.22,904.655,744.191,908.791,735.958,908.791z M420.796,459.816c-23.77,0-43.096,19.342-43.096,43.092v197.82
				c0,23.751,19.334,43.089,43.096,43.089H584.65l136.652,136.697c8.316,8.302,13.307,8.946,14.625,8.946c0.015,0,0.015,0,0.015,0
				c0.705,0,1.873-0.015,3.252-2.293c1.124-1.828,2.967-6.241,2.967-15.284V331.753c0-10.351-2.562-17.585-6.226-17.585
				c-1.319,0-6.302,0.645-14.618,8.961L584.65,459.816H420.796z"/>
			
				<rect x="154.482" y="590.252" transform="matrix(-0.7071 -0.7071 0.7071 -0.7071 599.8463 1448.2838)" fill="#FFFFFF" width="890.782" height="19.316"/>
		</g>
	</g>
</g>
</svg>
